<?xml version="1.0" encoding="iso-8859-1"?>
<!-- Uploaded to: SVG Repo, www.svgrepo.com, Generator: SVG Repo Mixer Tools -->
<!DOCTYPE svg PUBLIC "-//W3C//DTD SVG 1.1//EN" "http://www.w3.org/Graphics/SVG/1.1/DTD/svg11.dtd">
<svg fill="#000000" height="800px" width="800px" version="1.1" id="Capa_1" xmlns="http://www.w3.org/2000/svg" xmlns:xlink="http://www.w3.org/1999/xlink" 
	 viewBox="0 0 394.661 394.661" xml:space="preserve">
<g>
	<g>
		<g>
			<g>
				<path d="M111.868,375.114c-7.514,0-14.662-4.797-19.12-12.832c-6.658-11.998-5.155-27.306,3.421-34.85
					c3.222-2.834,7.123-4.33,11.282-4.33c7.514,0,14.662,4.797,19.123,12.832c6.658,12,5.154,27.308-3.424,34.851
					C119.929,373.617,116.028,375.114,111.868,375.114z M107.451,335.102c-1.232,0-2.331,0.438-3.356,1.34
					c-3.802,3.345-5.088,12.388-0.854,20.018c2.243,4.043,5.629,6.654,8.627,6.654c1.233,0,2.332-0.439,3.358-1.341
					c3.802-3.343,5.088-12.386,0.855-20.016C113.836,337.715,110.449,335.102,107.451,335.102z"/>
			</g>
			<g>
				<path d="M282.795,375.114C282.795,375.114,282.795,375.114,282.795,375.114c-4.161,0-8.061-1.497-11.282-4.329
					c-8.577-7.544-10.08-22.851-3.423-34.85c4.46-8.036,11.608-12.833,19.122-12.833c4.159,0,8.061,1.496,11.282,4.33
					c8.575,7.543,10.077,22.852,3.419,34.85C297.456,370.317,290.309,375.114,282.795,375.114z M287.212,335.102
					c-2.998,0-6.386,2.612-8.63,6.656c-4.233,7.629-2.947,16.672,0.855,20.016c1.025,0.901,2.124,1.34,3.357,1.34
					c2.997,0,6.383-2.611,8.625-6.654c4.234-7.631,2.949-16.674-0.852-20.018C289.543,335.54,288.445,335.102,287.212,335.102z"/>
			</g>
		</g>
		<g>
			<path d="M221.203,147.611c-3.313,0-6,2.686-6,6c0,3.273-2.664,5.936-5.938,5.936c-3.273,0-5.935-2.663-5.935-5.936v-7.777
				l14.572-12.489c1.844-1.58,2.554-4.115,1.798-6.424c-4.088-12.482-16.155-15.695-22.191-15.666
				c-0.018-0.001-0.034-0.004-0.051-0.004c-0.038-0.001-0.083,0.002-0.122,0.002c-0.043,0-0.092-0.003-0.134-0.002
				c-0.019,0-0.037,0.003-0.057,0.004c-6.039-0.02-18.097,3.189-22.185,15.666c-0.757,2.308-0.047,4.844,1.797,6.424l14.572,12.489
				v7.777c0,3.273-2.663,5.936-5.937,5.936c-3.273,0-5.936-2.663-5.936-5.936c0-3.314-2.687-6-6-6c-3.314,0-6,2.686-6,6
				c0,9.89,8.046,17.936,17.936,17.936c4.586,0,8.762-1.745,11.937-4.586c3.174,2.841,7.35,4.586,11.935,4.586
				c9.892,0,17.938-8.047,17.938-17.936C227.203,150.298,224.517,147.611,221.203,147.611z M197.246,123.249
				c0.001,0,0.002,0,0.003,0c0.012,0,0.022-0.001,0.034-0.001c0.015,0,0.029,0.002,0.044,0.002c0.044,0,0.088-0.001,0.131-0.001
				c0.069,0.003,5.675-0.063,9.039,4.066l-9.167,7.856l-9.172-7.86C191.332,123.395,196.501,123.249,197.246,123.249z"/>
			<g>
				<path d="M174.864,110.442h-20.995c-3.314,0-6-2.687-6-6s2.686-6,6-6h20.995c3.313,0,6,2.687,6,6
					S178.177,110.442,174.864,110.442z"/>
			</g>
			<g>
				<path d="M240.792,110.442h-20.995c-3.314,0-6-2.687-6-6s2.686-6,6-6h20.995c3.313,0,6,2.687,6,6
					S244.106,110.442,240.792,110.442z"/>
			</g>
		</g>
		<g>
			<path d="M89.502,298.543c-1.608-2.896-5.258-3.942-8.158-2.334c-2.897,1.608-3.942,5.261-2.334,8.158l6.242,11.245
				c1.097,1.975,3.143,3.089,5.252,3.089c0.984,0,1.983-0.243,2.906-0.755c2.897-1.608,3.942-5.261,2.334-8.158L89.502,298.543z"/>
			<g>
				<path d="M309.411,315.612l6.242-11.245c1.608-2.897,0.563-6.55-2.334-8.158c-2.898-1.608-6.55-0.563-8.158,2.334l-6.242,11.245
					c-1.608,2.897-0.564,6.55,2.334,8.158c0.923,0.512,1.921,0.755,2.906,0.755C306.268,318.701,308.314,317.587,309.411,315.612z"
					/>
				<path d="M322.502,282.294c-4.642-4.083-10.087-6.647-15.954-7.566c0.487-1.565,0.934-3.131,1.337-4.694
					c1.449,0.215,2.925,0.336,4.427,0.336c17.956,0,32.564-15.868,32.564-35.374c0-19.506-14.607-35.375-32.564-35.375
					c-5.731,0-11.119,1.622-15.802,4.458c-6.917-9.216-15.917-16.36-25.922-20.785c6.259-5.166,11.554-10.919,15.77-17.113
					l29.166,5.668c0.387,0.075,0.771,0.111,1.151,0.111c2.814,0,5.326-1.99,5.883-4.857c0.633-3.253-1.492-6.402-4.745-7.034
					l-25.282-4.913c3.696-8.289,5.641-17.113,5.641-26.165c0-0.673-0.012-1.349-0.033-2.027l19.675-3.823
					c3.253-0.632,5.378-3.781,4.745-7.034c-0.632-3.253-3.781-5.375-7.034-4.745l-18.802,3.654
					c-1.214-6.021-3.17-12.12-5.799-18.146c29.027-41.772,22.541-89.53,22.243-91.588c-0.411-2.844-2.78-4.996-5.65-5.135
					c-32.462-1.561-53.139,9.697-64.766,19.416c-7.594,6.348-12.429,12.879-15.147,17.236c-9.813-3.502-20.001-5.326-30.272-5.326
					c-10.273,0-20.46,1.824-30.274,5.328c-2.716-4.356-7.546-10.885-15.146-17.238C140.284,9.842,119.599-1.416,87.146,0.146
					c-2.87,0.139-5.239,2.291-5.65,5.135c-0.298,2.058-6.783,49.817,22.244,91.59c-2.628,6.024-4.584,12.124-5.798,18.144
					l-18.803-3.654c-3.251-0.63-6.402,1.492-7.034,4.745c-0.633,3.253,1.492,6.402,4.745,7.034l19.676,3.824
					c-0.021,0.678-0.033,1.354-0.033,2.026c0,9.052,1.944,17.876,5.64,26.165l-25.282,4.913c-3.253,0.632-5.378,3.781-4.745,7.034
					c0.557,2.867,3.068,4.857,5.883,4.857c0.38,0,0.766-0.036,1.151-0.111l29.165-5.668c4.218,6.196,9.534,11.938,15.8,17.102
					c-10.017,4.423-19.025,11.574-25.947,20.798c-4.684-2.837-10.071-4.46-15.804-4.46c-17.958,0-32.567,15.869-32.567,35.375
					c0,19.506,14.609,35.374,32.567,35.374c1.501,0,2.975-0.12,4.423-0.335c0.406,1.561,0.87,3.126,1.361,4.69
					c-5.876,0.915-11.33,3.481-15.979,7.57c-18.371,16.159-20.101,51.626-3.939,80.741c10.825,19.507,27.666,31.625,43.95,31.625
					c7.735,0,14.95-2.75,20.864-7.952c3.673-3.231,6.667-7.245,8.998-11.815c16.689,5.94,35.668,9.078,55.296,9.079
					c0,0,0.001,0,0.002,0h0.006c0,0,0.001,0,0.002,0c19.625-0.001,38.606-3.134,55.296-9.074c2.331,4.569,5.325,8.581,8.997,11.812
					c5.914,5.201,13.129,7.951,20.864,7.951c0.001,0,0,0,0.001,0c16.282,0,33.123-12.118,43.948-31.625
					C342.604,333.919,340.872,298.454,322.502,282.294z M302.271,228.995h-9.836c2.337-9.99,10.361-17.375,19.877-17.375
					c11.339,0,20.564,10.486,20.564,23.375c0,12.889-9.225,23.374-20.564,23.374c-9.516,0-17.54-7.384-19.877-17.374h9.836
					c3.314,0,6-2.687,6-6C308.271,231.681,305.584,228.995,302.271,228.995z M301.818,14.023
					c0.524,13.247-0.553,43.051-17.251,70.571c-4.368-7.253-9.691-14.229-15.85-20.631c-2.112-2.196-4.285-4.282-6.506-6.269
					C271.581,29.092,291.469,17.984,301.818,14.023z M276.418,15.25c-8.982,7.444-18.049,18.432-24.127,34.512
					c-4.375-3.108-8.901-5.838-13.545-8.178C243.591,34.303,254.881,21.293,276.418,15.25z M155.913,41.585
					c-4.643,2.341-9.169,5.069-13.544,8.178c-6.072-16.069-15.128-27.061-24.103-34.504
					C139.787,21.305,151.072,34.309,155.913,41.585z M92.844,14.027c10.347,3.958,30.235,15.056,39.607,43.667
					c-2.221,1.987-4.394,4.073-6.506,6.27c-6.159,6.404-11.484,13.382-15.853,20.637C93.391,57.076,92.32,27.269,92.844,14.027z
					 M121.361,163.641l35.99-6.994c3.253-0.632,5.378-3.781,4.745-7.034c-0.632-3.253-3.787-5.375-7.034-4.745l-40.747,7.919
					c-3.759-7.421-5.769-15.363-5.816-23.497l46.563,9.05c0.387,0.075,0.771,0.111,1.151,0.111c2.814,0,5.326-1.99,5.883-4.857
					c0.633-3.253-1.492-6.402-4.745-7.034l-47.667-9.264c7.043-35.697,44.564-73.824,87.646-73.824
					c43.083,0,80.605,38.127,87.649,73.823l-47.67,9.265c-3.253,0.632-5.378,3.781-4.745,7.034c0.557,2.867,3.068,4.857,5.883,4.857
					c0.38,0,0.765-0.036,1.151-0.111l46.566-9.05c-0.048,8.134-2.058,16.076-5.817,23.497l-40.749-7.919
					c-3.251-0.63-6.402,1.492-7.034,4.745c-0.633,3.253,1.492,6.402,4.745,7.034l35.991,6.994
					c-4.561,5.658-10.274,10.83-16.996,15.34c-3.099-0.521-6.238-0.796-9.395-0.796h-0.095c-19.157,0.032-36.46,9.492-49.483,26.842
					c-13.025-17.349-30.326-26.809-49.482-26.841h-0.096c-3.157,0-6.299,0.274-9.4,0.797
					C131.634,174.472,125.921,169.301,121.361,163.641z M82.353,258.369c-11.341,0-20.567-10.485-20.567-23.374
					c0-12.889,9.226-23.375,20.567-23.375c9.516,0,17.539,7.385,19.876,17.375h-9.837c-3.314,0-6,2.686-6,6c0,3.313,2.686,6,6,6
					h9.837C99.892,250.985,91.868,258.369,82.353,258.369z M125.108,377.699c-3.743,3.292-8.096,4.962-12.938,4.962
					c-11.927,0-24.747-9.751-33.458-25.448c-5.476-9.865-8.539-20.887-9.248-31.264l7.316,5.516c1.082,0.816,2.35,1.21,3.607,1.21
					c1.819,0,3.617-0.824,4.796-2.389c1.995-2.647,1.467-6.408-1.179-8.403l-9.348-7.047c-1.454-1.097-3.245-1.426-4.896-1.066
					c1.184-9.395,4.632-17.458,10.323-22.464c3.744-3.294,8.099-4.965,12.942-4.965c1.97,0,3.963,0.272,5.959,0.786
					c-1.849,1.258-2.922,3.499-2.564,5.858l2.042,13.475c0.45,2.973,3.009,5.103,5.925,5.103c0.299,0,0.603-0.022,0.907-0.069
					c3.275-0.496,5.529-3.555,5.033-6.83l-2.021-13.34c6.783,4.37,13.16,11.43,18.175,20.465
					C139.561,335.354,138.932,365.538,125.108,377.699z M100.975,275.285c-1.138-3.124-2.088-6.251-2.846-9.358
					c10.003-6.044,16.789-17.641,16.789-30.932c0-8.73-2.932-16.725-7.774-22.901c9.829-13.614,25.03-21.907,40.61-21.907h0.075
					c17.438,0.029,33.193,10.205,44.362,28.652c1.129,1.863,3.108,2.893,5.139,2.893l0.002-0.004l0.002,0.004
					c2.03,0,4.011-1.03,5.139-2.893c11.169-18.447,26.925-28.623,44.363-28.653h0.074c15.58,0,30.781,8.295,40.608,21.908
					c-4.843,6.177-7.774,14.172-7.774,22.901c0,13.299,6.794,24.901,16.807,30.942c-0.758,3.101-1.715,6.225-2.852,9.345
					c-13.648,3.189-26.941,14.34-36.01,30.684c-5.278,9.51-8.635,19.695-10.14,29.665c-14.187,11.934-31.055,23.361-50.217,34.018
					c-19.275-10.714-36.139-22.108-50.204-33.921c-1.498-10.001-4.859-20.222-10.154-29.763
					C127.907,289.627,114.62,278.476,100.975,275.285z M147.914,351.756c8.306,6.411,17.391,12.674,27.186,18.752
					c-10.194-1.366-19.938-3.685-28.938-6.882C147.088,359.85,147.681,355.874,147.914,351.756z M219.529,370.513
					c9.773-6.077,18.867-12.365,27.215-18.826c0.23,4.143,0.825,8.143,1.757,11.939
					C239.489,366.828,229.735,369.148,219.529,370.513z M309.478,330.285c1.179,1.565,2.977,2.39,4.796,2.39
					c1.257,0,2.525-0.395,3.606-1.209l7.317-5.516c-0.708,10.377-3.772,21.398-9.246,31.264
					c-8.712,15.697-21.531,25.447-33.457,25.447c-4.842,0-9.195-1.67-12.939-4.962c-13.824-12.161-14.454-42.345-1.375-65.911
					c5.015-9.034,11.391-16.094,18.173-20.464l-2.02,13.339c-0.496,3.277,1.758,6.335,5.034,6.831
					c0.305,0.046,0.607,0.068,0.906,0.068c2.917,0,5.475-2.131,5.925-5.103l2.04-13.477c0.357-2.358-0.716-4.598-2.564-5.856
					c1.996-0.515,3.99-0.786,5.96-0.786c4.843,0,9.197,1.67,12.941,4.964c5.691,5.006,9.141,13.069,10.323,22.465
					c-1.649-0.359-3.438-0.03-4.892,1.065l-9.35,7.047C308.011,323.877,307.483,327.639,309.478,330.285z"/>
			</g>
		</g>
	</g>
</g>
</svg>