<?xml version="1.0" standalone="no"?>
<!DOCTYPE svg PUBLIC "-//W3C//DTD SVG 20010904//EN"
 "http://www.w3.org/TR/2001/REC-SVG-20010904/DTD/svg10.dtd">
<svg version="1.0" xmlns="http://www.w3.org/2000/svg"
 width="1024.000000pt" height="1024.000000pt" viewBox="0 0 1024.000000 1024.000000"
 preserveAspectRatio="xMidYMid meet">

<g transform="translate(0.000000,1024.000000) scale(0.100000,-0.100000)"
fill="#000000" stroke="none">
<path d="M4783 9939 l-651 -7 -52 -28 c-59 -32 -93 -76 -139 -181 -89 -205
-153 -623 -136 -903 19 -331 77 -555 215 -835 94 -190 196 -331 329 -457 83
-78 218 -181 289 -220 29 -15 30 -19 22 -50 -5 -18 -19 -95 -30 -172 -25 -162
-56 -275 -111 -405 -139 -324 -396 -662 -844 -1106 -193 -192 -241 -234 -686
-605 -495 -412 -635 -555 -988 -1004 -275 -349 -502 -852 -670 -1481 -96 -358
-125 -584 -119 -931 1 -117 5 -214 8 -217 3 -2 118 -7 257 -10 l252 -7 104
128 c57 70 220 260 361 422 312 357 433 506 479 585 19 33 60 101 92 150 155
244 311 640 446 1132 36 134 84 270 166 475 104 258 120 293 170 353 63 76
151 144 276 212 56 31 89 55 92 68 52 238 102 382 191 557 102 200 202 275
352 266 83 -5 142 -33 215 -102 140 -135 247 -333 352 -658 45 -138 49 -146
76 -152 40 -8 474 -220 595 -291 189 -111 328 -221 386 -307 33 -48 38 -65 57
-193 12 -77 37 -201 56 -275 32 -123 42 -145 112 -260 149 -243 223 -374 229
-405 11 -59 -55 -218 -135 -325 -51 -68 -170 -191 -233 -240 -56 -45 -204
-100 -461 -169 -238 -65 -380 -94 -439 -88 l-47 4 -16 -46 c-29 -85 -84 -185
-156 -286 -39 -55 -88 -136 -109 -180 -84 -180 -93 -205 -98 -297 l-5 -88
1267 0 c926 0 1266 3 1266 11 0 64 -42 1245 -50 1404 -35 700 -103 1077 -279
1549 -126 336 -126 334 -112 447 41 338 210 721 449 1021 99 125 251 276 337
338 l81 57 199 6 c236 8 296 17 432 62 391 131 678 427 784 812 16 59 23 117
26 238 6 176 -7 282 -51 419 -16 52 -22 89 -19 119 11 91 -44 211 -119 264
l-41 28 -356 6 c-196 4 -424 7 -507 8 l-151 1 -6 173 c-4 139 -10 191 -30 273
-108 425 -436 861 -832 1104 -280 172 -698 283 -945 251 -60 -8 -78 -7 -90 4
-9 8 -32 21 -53 30 -41 17 -106 17 -1254 4z m1332 -252 c40 -40 73 -138 109
-323 75 -389 57 -732 -55 -1068 -137 -413 -423 -756 -791 -949 -75 -39 -157
-76 -183 -83 -5 -1 -28 -9 -50 -16 -99 -35 -185 -16 -185 41 0 35 13 46 65 55
218 38 462 180 671 390 360 364 524 916 439 1478 -18 124 -70 330 -95 379 -25
48 -26 104 -2 118 28 17 42 13 77 -22z m-1108 -4126 c38 -56 63 -156 89 -355
22 -169 29 -336 12 -296 -3 8 -23 62 -43 120 -50 142 -147 343 -191 397 -43
53 -41 71 15 132 49 53 83 54 118 2z"/>
</g>
</svg>
